<?xml version="1.0" encoding="UTF-8"?>
<svg version="1.1" xmlns="http://www.w3.org/2000/svg" width="2134" height="2134">
<path d="M0 0 C11.6349452 10.33683148 21.24940839 22.08378376 28.65380859 35.81176758 C28.98622559 36.41746582 29.31864258 37.02316406 29.66113281 37.6472168 C36.15427159 50.24397041 39.80282033 64.38922495 43.42333984 78.02661133 C43.84104842 79.58011189 44.25933255 81.1334578 44.67814636 82.68666077 C45.77048261 86.74398918 46.85483672 90.80340747 47.93743896 94.86334229 C49.01031072 98.88072775 50.09130758 102.89592451 51.17138672 106.91137695 C56.76292296 127.71751529 62.27952968 148.54358145 67.77880859 169.37426758 C68.37450653 169.38896088 68.97020447 169.40365417 69.58395386 169.41879272 C111.69655545 170.5026528 148.93513139 185.2470166 178.29345703 215.95874023 C193.48379117 232.27125188 204.54247447 252.04235422 211.15380859 273.31176758 C211.4936377 274.38056152 211.4936377 274.38056152 211.84033203 275.47094727 C212.59796772 278.08792349 213.19116949 280.71329902 213.77880859 283.37426758 C214.03649961 284.5385859 214.29419064 285.70290422 214.55969048 286.90250492 C217.97045119 304.47166105 217.04515496 322.45846652 216.84507227 340.26305926 C216.7925054 345.27534849 216.75876004 350.28776461 216.72364807 355.30020142 C216.67742153 361.74889197 216.62950888 368.19755242 216.57421994 374.6461724 C216.43667542 390.71679788 216.3474557 406.78720174 216.28634644 422.85829163 C216.28179979 424.02930589 216.27725314 425.20032015 216.27256872 426.40681969 C216.24463501 433.60854035 216.21763147 440.81026429 216.19084939 448.01198931 C216.14946556 459.12600536 216.10662225 470.24001227 216.05908203 481.35400391 C216.05118656 483.20696347 216.05118656 483.20696347 216.04313157 485.09735657 C215.95622256 504.91533548 215.78942656 524.73189456 215.59420063 544.54906612 C215.39428356 565.06555415 215.29524134 585.58098205 215.27957428 606.09843832 C215.26796446 617.54880352 215.21462236 628.99524266 215.04205704 640.44441032 C214.19109651 698.72651862 220.41950473 750.02765493 237.94517481 805.74194115 C243.40057107 823.09199485 248.08141715 840.62466198 252.6910212 858.21514022 C254.6746779 865.7730707 256.70972789 873.31730127 258.73954639 880.8629356 C259.85412852 885.00857878 260.96549531 889.1550843 262.07714844 893.30151367 C264.80657533 903.47825725 267.53673928 913.65480303 270.26708984 923.83129883 C270.49431417 924.67820471 270.72153851 925.52511059 270.95564842 926.39768028 C272.1040194 930.67785241 273.252401 934.95802169 274.40078735 939.2381897 C276.46441755 946.92959697 278.52795379 954.62102945 280.59149742 962.31245995 C281.73726399 966.58306351 282.8830366 970.85366546 284.02880859 975.12426758 C284.48714196 976.8326009 284.94547529 978.54093424 285.40380859 980.24926758 C285.63068359 981.09489258 285.85755859 981.94051758 286.09130859 982.81176758 C332.1538059 1154.49925752 332.1538059 1154.49925752 332.84130573 1157.06175709 C333.29964849 1158.77012542 333.75799136 1160.47849372 334.21633434 1162.18686199 C335.36202448 1166.45715958 336.50771261 1170.72745772 337.65339661 1174.99775696 C339.71760433 1182.69165492 341.78182627 1190.38554906 343.8461237 1198.07942295 C344.99426823 1202.3586914 346.14240093 1206.63796302 347.29052734 1210.91723633 C347.51776678 1211.7641976 347.74500622 1212.61115887 347.9791317 1213.48378563 C351.1533042 1225.3145763 354.32682167 1237.14554251 357.49990463 1248.97662544 C359.53021914 1256.54671399 361.56072115 1264.11675224 363.59130859 1271.68676758 C363.81620468 1272.52518566 364.04110077 1273.36360374 364.27281189 1274.22742844 C369.77834907 1294.75183312 375.28820669 1315.27507015 380.80615234 1335.79614258 C381.06029593 1336.74129667 381.31443951 1337.68645077 381.57628441 1338.6602459 C383.65355447 1346.3854382 385.73096914 1354.11059162 387.80839157 1361.83574295 C397.24229502 1396.91740896 406.65570455 1432.00454431 416.05744934 1467.09484196 C416.57605837 1469.030295 417.09476488 1470.96572192 417.61357117 1472.90112209 C418.87141597 1477.59401089 420.127587 1482.28733395 421.38000488 1486.98167419 C423.58926975 1495.25554486 425.81172398 1503.52475059 428.10028648 1511.77709579 C429.11573712 1515.44169521 430.12202068 1519.10878678 431.12784195 1522.77603912 C431.59592492 1524.47233147 432.0684703 1526.16740114 432.54626083 1527.8609848 C443.07914698 1565.20709914 442.42551986 1602.44504045 423.81298828 1637.17651367 C419.51631574 1644.81242474 414.46815224 1651.72946165 408.77880859 1658.37426758 C408.10333984 1659.18379883 407.42787109 1659.99333008 406.73193359 1660.82739258 C389.71837372 1680.57305696 367.91631739 1692.65839769 343.18115234 1699.93286133 C341.44558578 1700.44478783 341.44558578 1700.44478783 339.67495728 1700.96705627 C323.60720581 1705.65239884 307.41089125 1709.871577 291.22698975 1714.13378906 C284.43109148 1715.92436374 277.63698645 1717.72173732 270.84290314 1719.51918411 C269.17714194 1719.95973749 267.51130494 1720.40000439 265.84539032 1720.83997726 C256.88958758 1723.20546625 247.94024839 1725.59176938 239.00634766 1728.03881836 C238.23064234 1728.25123326 237.45493702 1728.46364817 236.65572548 1728.68249989 C232.98877365 1729.68773665 229.32298944 1730.69702 225.65866089 1731.71177673 C224.36945075 1732.06682096 223.08023595 1732.42184824 221.79101562 1732.77685547 C220.67276398 1733.08667862 219.55451233 1733.39650177 218.40237427 1733.7157135 C215.77880859 1734.37426758 215.77880859 1734.37426758 213.77880859 1734.37426758 C213.65634766 1735.5421582 213.53388672 1736.71004883 213.40771484 1737.91333008 C210.1690504 1763.5635525 194.98430292 1787.79462396 177.77880859 1806.37426758 C176.90611328 1807.32946289 176.03341797 1808.2846582 175.13427734 1809.26879883 C150.12286211 1835.48016202 113.99124024 1851.42331433 77.77863026 1852.46017003 C69.86676465 1852.55038604 61.95633309 1852.43690345 54.04520059 1852.32446563 C50.4541386 1852.2761213 46.86294898 1852.24096075 43.27174377 1852.20513916 C38.64897718 1852.15855178 34.02622525 1852.11139336 29.40351248 1852.05970299 C17.85317794 1851.93162059 6.30301882 1851.84767477 -5.24786377 1851.78843689 C-6.09186858 1851.78404579 -6.93587339 1851.77965468 -7.80545411 1851.77513052 C-15.64423786 1851.73457629 -23.48303381 1851.69667281 -31.32183599 1851.65987217 C-36.68591987 1851.63449591 -42.04999396 1851.60753435 -47.4140625 1851.57910156 C-48.30415407 1851.57440341 -49.19424564 1851.56970526 -50.11130968 1851.56486475 C-62.57240089 1851.49689059 -75.03187572 1851.37297239 -87.4920157 1851.20604011 C-166.43890137 1850.15040152 -239.36539461 1849.56249147 -314.79119378 1876.17787218 C-324.91330227 1879.71331676 -335.2719617 1882.35109668 -345.6626339 1884.97304344 C-350.35956921 1886.16709894 -355.03636306 1887.43434719 -359.71508789 1888.69750977 C-361.47644506 1889.16971183 -363.23790952 1889.64151385 -364.9994812 1890.11291504 C-373.90373149 1892.4978006 -382.80761884 1894.88404085 -391.71156502 1897.27006149 C-394.73050798 1898.07904681 -397.74946195 1898.88799106 -400.76841736 1899.69692993 C-420.56626734 1905.00197266 -440.36267214 1910.31239811 -460.15869141 1915.62426758 C-460.99383018 1915.84836052 -461.82896896 1916.07245346 -462.68941498 1916.3033371 C-469.38891369 1918.10102497 -476.08840756 1919.89873092 -482.78788376 1921.69650269 C-494.44484397 1924.82458933 -506.10204042 1927.95179398 -517.75943375 1931.07826614 C-525.35089232 1933.11428656 -532.94230478 1935.15047893 -540.53369141 1937.18676758 C-541.37311028 1937.41193054 -542.21252914 1937.63709351 -543.07738495 1937.86907959 C-563.60078258 1943.37433282 -584.12300509 1948.88393452 -604.64306641 1954.40161133 C-606.05952013 1954.78248398 -606.05952013 1954.78248398 -607.50458908 1955.17105103 C-612.32075943 1956.46610102 -617.13691466 1957.76120721 -621.95306396 1959.05633545 C-662.20878183 1969.8816372 -702.47075877 1980.68341463 -742.7361145 1991.47280884 C-744.23167562 1991.87355558 -744.23167562 1991.87355558 -745.7574501 1992.28239822 C-747.76154585 1992.81940797 -749.76564283 1993.35641309 -751.76974106 1993.89341354 C-771.7275104 1999.24117089 -791.6839663 2004.59381672 -811.63989639 2009.94843292 C-814.975235 2010.84335983 -818.31059328 2011.73821342 -821.64595127 2012.63306808 C-837.0855935 2016.7754503 -852.52503284 2020.91858664 -867.96386433 2025.06398964 C-875.36997555 2027.05256499 -882.77618444 2029.04077628 -890.1824522 2031.02876854 C-894.55864416 2032.2034582 -898.93477937 2033.37835818 -903.3107605 2034.55383301 C-904.95790442 2034.99626271 -906.60504999 2035.43868629 -908.25219727 2035.88110352 C-909.0556511 2036.09691889 -909.85910494 2036.31273426 -910.68690586 2036.53508949 C-914.62570466 2037.5927623 -918.56488412 2038.64898012 -922.50489807 2039.70211792 C-923.26603692 2039.90556635 -924.02717577 2040.10901478 -924.81137943 2040.31862831 C-926.33416776 2040.72563619 -927.85697127 2041.13258725 -929.37979031 2041.53948021 C-934.02320651 2042.78163531 -938.66311042 2044.03611578 -943.3008728 2045.29921055 C-946.37563539 2046.13531074 -949.45215082 2046.96483387 -952.5289917 2047.79324913 C-953.95757214 2048.17951538 -955.38539175 2048.56861004 -956.81231689 2048.96094704 C-993.35583707 2059.00277913 -1029.83672963 2055.55392816 -1062.97900391 2036.90942383 C-1081.31690992 2026.16958051 -1096.60017721 2010.71444422 -1107.90869141 1992.81176758 C-1108.3238501 1992.17166748 -1108.73900879 1991.53156738 -1109.16674805 1990.87207031 C-1118.27333426 1975.87768152 -1122.93157184 1958.42437375 -1127.33056641 1941.60473633 C-1127.86897211 1939.58388344 -1128.40848635 1937.56332561 -1128.94903564 1935.54304504 C-1130.35245068 1930.28623656 -1131.74111805 1925.02564864 -1133.12640381 1919.76403809 C-1134.53308479 1914.43184211 -1135.95391096 1909.10341986 -1137.37353516 1903.7746582 C-1139.68686102 1895.08451255 -1141.99389583 1886.39273787 -1144.28390121 1877.69641399 C-1145.32687367 1873.73898309 -1146.37804276 1869.78434505 -1147.45617676 1865.83633423 C-1147.6453429 1865.14021939 -1147.83450905 1864.44410456 -1148.0294075 1863.72689533 C-1148.5307974 1861.88596849 -1149.03637137 1860.04618259 -1149.54229736 1858.20649719 C-1150.22119141 1855.37426758 -1150.22119141 1855.37426758 -1150.22119141 1852.37426758 C-1150.98818359 1852.40907227 -1151.75517578 1852.44387695 -1152.54541016 1852.47973633 C-1192.64594885 1853.45779825 -1229.1763379 1836.93268058 -1257.95800781 1809.73291016 C-1276.65209351 1791.51558291 -1289.92924592 1767.08732688 -1296.09619141 1741.81176758 C-1296.28729492 1741.03486572 -1296.47839844 1740.25796387 -1296.67529297 1739.45751953 C-1299.90636327 1725.04817741 -1300.51562867 1710.42727589 -1300.36508179 1695.72485352 C-1300.35573301 1694.02552177 -1300.34736356 1692.32618441 -1300.33987296 1690.62684345 C-1300.32183057 1686.96764046 -1300.29738693 1683.30855902 -1300.26781273 1679.64943123 C-1300.21981583 1673.68889623 -1300.18668748 1667.72832977 -1300.15574646 1661.76768494 C-1300.12174091 1655.33264208 -1300.08684431 1648.89761106 -1300.04726577 1642.46259975 C-1299.94928313 1626.44727375 -1299.88759971 1610.43207363 -1299.84707642 1594.41650391 C-1299.84406593 1593.25122449 -1299.84105544 1592.08594507 -1299.83795373 1590.88535416 C-1299.81325998 1581.28979775 -1299.79001372 1571.69423793 -1299.76718423 1562.09867692 C-1299.74656033 1553.46934466 -1299.7245656 1544.84001724 -1299.70068359 1536.21069336 C-1299.6956037 1534.36650513 -1299.6956037 1534.36650513 -1299.69042118 1532.48506057 C-1299.63397248 1512.71260575 -1299.51265408 1492.94104262 -1299.36821191 1473.16905856 C-1299.22065308 1452.73518238 -1299.15253469 1432.3020344 -1299.15172923 1411.86762428 C-1299.14900818 1400.44923514 -1299.11240043 1389.03331187 -1298.98252487 1377.61560059 C-1298.40305458 1324.96328082 -1301.57043603 1277.93997187 -1318.18342298 1227.73869062 C-1321.73446042 1217.00343312 -1324.64835708 1206.12804028 -1327.46290314 1195.18060815 C-1328.71427083 1190.34097907 -1330.01403135 1185.51431629 -1331.30834961 1180.68603516 C-1331.81874689 1178.77331232 -1332.3289188 1176.86052932 -1332.83877563 1174.94766235 C-1335.66868372 1164.33638085 -1338.50360988 1153.72643883 -1341.33837891 1143.11645508 C-1341.62600161 1142.03984179 -1341.91362431 1140.96322849 -1342.20996284 1139.85399055 C-1348.46068996 1116.4585006 -1354.74309534 1093.07156438 -1361.03369141 1069.68676758 C-1361.55436316 1067.7511193 -1362.07503374 1065.8154707 -1362.59570312 1063.87982178 C-1363.62895651 1060.03864253 -1364.66222213 1056.19746657 -1365.69549561 1052.35629272 C-1365.94900536 1051.41387096 -1366.20251511 1050.4714492 -1366.46370697 1049.50046921 C-1366.97289605 1047.60758523 -1367.48209705 1045.71470446 -1367.99131012 1043.82182693 C-1373.47266452 1023.44585907 -1378.94225662 1003.06674241 -1384.40869141 982.68676758 C-1384.86211033 980.99638846 -1385.31553033 979.30600964 -1385.76895142 977.6156311 C-1387.57043577 970.89952677 -1389.37184415 964.18340206 -1391.17311096 957.46723938 C-1394.35131121 945.61708085 -1397.53015905 933.7670962 -1400.70947266 921.91723633 C-1400.93669699 921.07033045 -1401.16392132 920.22342457 -1401.39803123 919.35085487 C-1402.54640221 915.07068274 -1403.69478381 910.79051346 -1404.84317017 906.51034546 C-1406.90680037 898.81893819 -1408.9703366 891.12750571 -1411.03388023 883.43607521 C-1412.1796468 879.16547164 -1413.32541941 874.89486969 -1414.47119141 870.62426758 C-1414.92952477 868.91593425 -1415.3878581 867.20760092 -1415.84619141 865.49926758 C-1416.07306641 864.65364258 -1416.29994141 863.80801758 -1416.53369141 862.93676758 C-1439.56494141 777.09301758 -1439.56494141 777.09301758 -1462.59619141 691.24926758 C-1462.82306861 690.4036344 -1463.04994581 689.55800121 -1463.28369808 688.68674278 C-1463.74200922 686.97849212 -1464.2003203 685.27024143 -1464.65863132 683.56199074 C-1465.80480376 679.28989247 -1466.9509772 675.01779447 -1468.09715271 670.74569702 C-1470.1556045 663.07330214 -1472.21404945 655.40090543 -1474.27245617 647.72849846 C-1475.41291496 643.47760765 -1476.55337974 639.22671844 -1477.69384766 634.97583008 C-1477.9198723 634.13336353 -1478.14589695 633.29089699 -1478.37877083 632.42290115 C-1480.94699878 622.85032748 -1483.51536195 613.2777901 -1486.08398438 603.70532227 C-1486.44064839 602.37613235 -1486.44064839 602.37613235 -1486.80451775 601.0200901 C-1488.00392921 596.55023313 -1489.20338758 592.08038874 -1490.40292358 587.61056519 C-1492.74294807 578.89067858 -1495.08212998 570.17056751 -1497.41943359 561.44995117 C-1498.31551545 558.10699433 -1499.21168292 554.76406045 -1500.10791016 551.42114258 C-1500.3257378 550.60860142 -1500.54356544 549.79606026 -1500.76799393 548.95889664 C-1503.60351165 538.38352881 -1506.4518527 527.81172206 -1509.31341743 517.24337387 C-1510.54314588 512.69905191 -1511.76898374 508.15367839 -1512.99539185 503.60845947 C-1513.63494608 501.24293889 -1514.27653556 498.87796742 -1514.92037964 496.51361084 C-1515.79140658 493.31488021 -1516.65547321 490.11434352 -1517.51806641 486.91333008 C-1517.76591385 486.01100647 -1518.01376129 485.10868286 -1518.26911926 484.17901611 C-1521.41967157 472.41583252 -1522.63346353 461.03956523 -1522.59619141 448.87426758 C-1522.59531525 448.17250397 -1522.59443909 447.47074036 -1522.59353638 446.74771118 C-1522.44970734 411.69274268 -1509.13830287 381.76187052 -1485.22119141 356.37426758 C-1484.62177734 355.71040039 -1484.02236328 355.0465332 -1483.40478516 354.36254883 C-1461.50414204 331.04285756 -1430.93103228 322.76719858 -1401.01054382 315.02802658 C-1397.54022466 314.12824953 -1394.07262252 313.21813586 -1390.60498047 312.30810547 C-1389.89978649 312.12304223 -1389.19459251 311.93797899 -1388.46802902 311.74730778 C-1387.02849036 311.36948791 -1385.58896484 310.99161798 -1384.14945221 310.61369896 C-1381.96190178 310.03979921 -1379.77403245 309.46712774 -1377.58612061 308.89460754 C-1367.09537729 306.14656638 -1356.62317546 303.33382866 -1346.15869141 300.48754883 C-1344.69183809 300.0889927 -1343.22498022 299.69045333 -1341.75811768 299.29193115 C-1336.10279883 297.75476358 -1330.44777509 296.21655956 -1324.79528809 294.66900635 C-1322.14393813 293.94314331 -1319.49194472 293.21973598 -1316.83911133 292.49931335 C-1314.44004566 291.84765817 -1312.04202671 291.19213256 -1309.64526367 290.53205872 C-1308.06007935 290.10288399 -1308.06007935 290.10288399 -1306.44287109 289.66503906 C-1305.52560242 289.41431137 -1304.60833374 289.16358368 -1303.66326904 288.90525818 C-1301.22119141 288.37426758 -1301.22119141 288.37426758 -1297.22119141 288.37426758 C-1297.14642578 287.70524414 -1297.07166016 287.0362207 -1296.99462891 286.34692383 C-1293.59522317 261.51793096 -1280.16600159 238.27685705 -1264.22119141 219.37426758 C-1263.70943359 218.74004883 -1263.19767578 218.10583008 -1262.67041016 217.45239258 C-1258.93548196 212.90202184 -1254.73236377 209.14140978 -1250.22119141 205.37426758 C-1248.98369141 204.30499023 -1248.98369141 204.30499023 -1247.72119141 203.21411133 C-1227.89310336 186.4121123 -1203.74165087 175.82513817 -1178.22119141 171.37426758 C-1177.25229792 171.1978624 -1176.28340443 171.02145721 -1175.28515053 170.83970642 C-1169.90648375 170.08717501 -1164.50204842 170.30774769 -1159.08456421 170.38427734 C-1157.25066602 170.4033291 -1157.25066602 170.4033291 -1155.37971938 170.42276573 C-1152.70059163 170.45098968 -1150.02155647 170.48106454 -1147.34249115 170.51414299 C-1140.66531192 170.59612552 -1133.98794694 170.6604253 -1127.31059256 170.72626746 C-1125.71852371 170.74203741 -1124.12645677 170.75800133 -1122.53439173 170.77415121 C-1109.92243204 170.90201111 -1097.31060265 170.99175781 -1084.69815063 171.0534668 C-1083.40863723 171.05982013 -1083.40863723 171.05982013 -1082.09307306 171.06630182 C-1073.18840178 171.10970265 -1064.28371523 171.14872404 -1055.37901231 171.18500113 C-1050.80149806 171.20388828 -1046.22399 171.22400436 -1041.64648438 171.24487305 C-1040.28043489 171.25107202 -1040.28043489 171.25107202 -1038.88678844 171.25739622 C-1026.15338629 171.31741523 -1013.42164709 171.43490785 -1000.68916863 171.5982207 C-888.03045525 173.85838507 -888.03045525 173.85838507 -778.71854877 149.34015846 C-766.00151909 144.82914127 -753.13770868 141.16563098 -740.09301758 137.72314453 C-738.59808519 137.32839276 -738.59808519 137.32839276 -737.07295215 136.92566621 C-732.34183944 135.67949312 -727.60843234 134.44243327 -722.87294769 133.21298409 C-716.89070202 131.65908501 -710.92299342 130.05391462 -704.95727539 128.43774414 C-703.23367646 127.97401658 -701.50997135 127.51068341 -699.78614807 127.04779053 C-698.97188417 126.82895958 -698.15762028 126.61012863 -697.31868172 126.38466644 C-696.48084585 126.15951607 -695.64300999 125.93436569 -694.77978516 125.70239258 C-693.85179045 125.45301186 -692.92379574 125.20363113 -691.96767998 124.94669342 C-659.54047075 116.23309202 -627.10622183 107.54572829 -594.67283058 98.85517311 C-573.8753238 93.28240435 -553.07925954 87.70426575 -532.28369141 82.12426758 C-530.60120661 81.6728205 -528.91872166 81.22137397 -527.23623657 80.76992798 C-520.56127119 78.97888522 -513.88631601 77.18780445 -507.21138 75.39665222 C-495.40092773 72.22743658 -483.59038736 69.05854944 -471.77978516 65.88989258 C-470.9324135 65.6625518 -470.08504185 65.43521103 -469.21199226 65.20098114 C-464.92842854 64.0517484 -460.64486339 62.90252096 -456.36129761 61.7532959 C-448.66843943 59.68939926 -440.97559384 57.6254557 -433.28274727 55.56151581 C-429.01222916 54.41576449 -424.74171024 53.27001619 -420.47119141 52.12426758 C-418.76285807 51.66593426 -417.05452474 51.20760093 -415.34619141 50.74926758 C-405.09619312 47.99926804 -405.09619312 47.99926804 -402.5337019 47.31177044 C-400.82533356 46.85342768 -399.11696526 46.39508481 -397.40859699 45.93674183 C-393.1382994 44.79105169 -388.86800127 43.64536356 -384.59770203 42.49967957 C-376.90380407 40.43547184 -369.20990993 38.3712499 -361.51603603 36.30695248 C-357.23676759 35.15880794 -352.95749596 34.01067525 -348.67822266 32.86254883 C-347.83126139 32.63530939 -346.98430012 32.40806995 -346.11167336 32.17394447 C-335.1176447 29.2242732 -324.12348163 26.27510357 -313.12918091 23.32644653 C-305.56399906 21.29747439 -297.99887759 19.26827714 -290.4337616 17.23905945 C-287.91642105 16.56384088 -285.39906843 15.88866731 -282.88171387 15.21350098 C-263.53838076 10.02539316 -244.1966638 4.83132739 -224.85759926 -0.37267113 C-221.72647816 -1.2152047 -218.59532308 -2.05761187 -215.4641571 -2.89997864 C-213.38552806 -3.45919611 -211.30689951 -4.01841546 -209.22827148 -4.57763672 C-208.20343375 -4.85335038 -207.17859602 -5.12906404 -206.1227026 -5.41313267 C-201.12837591 -6.75686233 -196.13416621 -8.10102374 -191.14022827 -9.44619751 C-179.38079617 -12.61362305 -167.61949585 -15.7739423 -155.85460281 -18.92102814 C-153.17898421 -19.63702712 -150.50365819 -20.3541126 -147.82833862 -21.07122803 C-143.45524022 -22.24266623 -139.08064145 -23.40834625 -134.70491791 -24.56993866 C-133.08770543 -24.99998778 -131.47092089 -25.43165022 -129.85462189 -25.86511993 C-83.43051472 -38.30683669 -37.02757935 -32.10619222 0 0 Z " fill="#3E120B" transform="translate(1608.22119140625,55.625732421875)"/>
<path d="M0 0 C15.20322499 7.76878296 29.06963802 17.17654638 42.41259766 27.78613281 C44.17455521 29.17688759 45.95344022 30.53977517 47.74609375 31.890625 C59.46345242 40.72357654 70.47293865 50.37349571 81.296875 60.2734375 C82.06064453 60.96953125 82.06064453 60.96953125 82.83984375 61.6796875 C91.77380508 69.82847883 100.62209531 78.00230709 108.5 87.19921875 C110.4714993 89.47501468 112.50821895 91.68266417 114.546875 93.8984375 C120.13365002 100.09966324 125.21944279 106.65522023 130.296875 113.2734375 C130.78591309 113.90556152 131.27495117 114.53768555 131.77880859 115.18896484 C164.68843458 157.7924005 188.96454821 207.72332734 200.23803711 260.44311523 C202.06818625 268.83509921 204.67213281 276.48409789 208.296875 284.2734375 C211.13683778 282.95762313 213.42180701 281.49204207 215.80859375 279.47265625 C216.4747168 278.91441162 217.14083984 278.35616699 217.82714844 277.78100586 C218.5390332 277.1803833 219.25091797 276.57976074 219.984375 275.9609375 C235.08202562 263.42108646 250.3855491 252.2702804 267.296875 242.2734375 C268.15297363 241.76425781 269.00907227 241.25507812 269.89111328 240.73046875 C305.48119348 219.65409776 343.94431201 202.77400733 384.296875 193.2734375 C384.99554687 193.10537598 385.69421875 192.93731445 386.4140625 192.76416016 C391.68899741 191.50302911 396.98518923 190.36831147 402.296875 189.2734375 C403.2549707 189.07218262 404.21306641 188.87092773 405.20019531 188.66357422 C432.32150104 183.03711901 458.9197894 181.00597674 486.546875 181.0234375 C487.5791925 181.02403168 488.61151001 181.02462585 489.67510986 181.02523804 C508.5437078 181.06674918 527.22437878 181.46312417 545.89257812 184.37524414 C548.08833606 184.71739817 550.28599909 185.04427059 552.484375 185.36914062 C562.6710991 186.89655262 572.00149669 188.69047939 581.296875 193.2734375 C581.91272461 193.57668945 582.52857422 193.87994141 583.16308594 194.19238281 C592.98801935 199.07927586 601.71351789 204.43854203 610.296875 211.2734375 C611.286875 211.9334375 612.276875 212.5934375 613.296875 213.2734375 C613.296875 213.9334375 613.296875 214.5934375 613.296875 215.2734375 C613.87308594 215.52738281 614.44929688 215.78132812 615.04296875 216.04296875 C628.75041051 223.52623418 638.13870786 241.96211809 645.296875 255.2734375 C641.01349123 260.39204606 636.52752343 265.17854042 631.79347324 269.8803339 C631.05518478 270.61767904 630.31689631 271.35502417 629.55623546 272.1147131 C627.08329906 274.58328082 624.60677137 277.04821371 622.13026428 279.51319885 C620.33810933 281.30077672 618.54618637 283.08858721 616.75447553 284.87661022 C612.85932832 288.76277555 608.96265156 292.64739715 605.06463051 296.5306797 C599.26834387 302.30511326 593.47503514 308.08252747 587.682482 313.86070597 C584.91939259 316.6169311 582.15619676 319.37304953 579.39297283 322.12913978 C578.8357113 322.68496268 578.27844978 323.24078558 577.70430155 323.8134516 C573.66037598 327.8468122 569.61591061 331.87963105 565.57119477 335.91219914 C549.27356991 352.16096868 532.98200201 368.41578896 516.69508972 384.67529612 C514.84655833 386.52071211 512.99800774 388.36610889 511.14945102 390.21149952 C505.53198875 395.8193452 499.91457444 401.42723893 494.29720963 407.03518224 C480.79592508 420.51381927 467.29430043 433.99211546 453.79174805 447.46948242 C453.14604772 448.11398455 452.50034739 448.75848668 451.83508039 449.42251917 C430.87517488 470.34338348 409.90520107 491.2541243 388.93055546 512.16020957 C367.36788305 533.65252697 345.81676789 555.15637015 324.27967649 576.67432309 C321.24096561 579.71031652 318.20211507 582.74617013 315.16317558 585.78193474 C314.565083 586.37940886 313.96699043 586.97688297 313.35077383 587.59246237 C303.71086071 597.22169636 294.05865758 606.83852032 284.40174591 616.45070355 C274.70672254 626.10130177 265.02429357 635.76438723 255.35477484 645.44054122 C249.60456245 651.19391209 243.8446926 656.93721193 238.07078658 662.66680633 C233.76951493 666.93718614 229.48656046 671.22544684 225.21060985 675.52119767 C223.47132462 677.26276091 221.72601361 678.99832969 219.97435833 680.72745068 C217.60630654 683.06672174 215.26053423 685.42622996 212.91938877 687.79238224 C212.22379527 688.4693008 211.52820176 689.14621936 210.81152967 689.84365061 C207.04695087 693.54569353 207.04695087 693.54569353 206.31793493 698.59955448 C207.25079733 701.14758067 208.22640752 703.35366582 209.6328125 705.671875 C210.11427734 706.47270508 210.59574219 707.27353516 211.09179688 708.09863281 C211.87393555 709.36078613 211.87393555 709.36078613 212.671875 710.6484375 C213.21134766 711.53112305 213.75082031 712.41380859 214.30664062 713.32324219 C225.18106577 730.95761701 237.16175213 748.09735596 251.296875 763.2734375 C252.48927622 764.64418933 253.67701383 766.01901613 254.859375 767.3984375 C257.98226181 771.00515184 261.33970114 774.31992464 264.79296875 777.609375 C266.296875 779.2734375 266.296875 779.2734375 266.296875 781.2734375 C266.86921875 781.53125 267.4415625 781.7890625 268.03125 782.0546875 C270.50816495 783.38709692 272.4309916 784.92399868 274.546875 786.7734375 C275.25328125 787.381875 275.9596875 787.9903125 276.6875 788.6171875 C278.296875 790.2734375 278.296875 790.2734375 278.296875 792.2734375 C278.81894531 792.49128906 279.34101562 792.70914063 279.87890625 792.93359375 C283.2376555 794.79474237 286.04443556 797.26476648 288.984375 799.7109375 C318.56575789 823.77874896 354.03232878 839.62927764 390.85205078 848.66845703 C393.80127263 849.39825249 396.73493931 850.18339485 399.671875 850.9609375 C407.15996404 852.78236456 414.67715024 854.15018862 422.296875 855.2734375 C423.22387207 855.41313965 424.15086914 855.5528418 425.10595703 855.69677734 C442.14435295 858.14506122 459.04795231 858.56723256 476.234375 858.5859375 C477.26256348 858.58943207 478.29075195 858.59292664 479.35009766 858.5965271 C497.72498039 858.63116142 516.07244855 857.77589986 534.171875 854.3984375 C535.12618408 854.22554199 536.08049316 854.05264648 537.0637207 853.87451172 C545.24016986 852.35660826 553.28699998 850.51855779 561.296875 848.2734375 C562.05500488 848.06493164 562.81313477 847.85642578 563.59423828 847.64160156 C609.45208533 834.91921114 653.32993689 810.37196287 686.5703125 776 C688.26029459 774.31001791 690.01554884 772.79236037 691.859375 771.2734375 C694.9869125 768.64378153 697.59056192 765.76471712 700.23046875 762.65234375 C702.26707861 760.30773996 704.37693686 758.04445661 706.5078125 755.78564453 C724.14455247 737.02422666 736.21088469 716.23238069 747.77636719 693.34570312 C761.97579951 665.25281951 761.97579951 665.25281951 774.296875 660.2734375 C786.77849012 656.52159641 797.81459722 662.28163713 808.734375 667.9609375 C820.18535734 674.14781542 832.28207002 681.24382755 838.296875 693.2734375 C839.91881793 705.7473491 836.5041123 713.71667559 830.296875 724.2734375 C829.47004447 725.72842318 828.64454144 727.18416398 827.8203125 728.640625 C822.99119299 737.08407386 817.84172543 745.27969442 812.296875 753.2734375 C811.86681152 753.89653809 811.43674805 754.51963867 810.99365234 755.16162109 C796.29607819 776.41303526 780.51801626 796.90711559 762.76464844 815.70410156 C761.25982225 817.31305411 759.77973237 818.94185206 758.3046875 820.578125 C740.59557902 840.17386949 740.59557902 840.17386949 734.296875 842.2734375 C734.296875 842.9334375 734.296875 843.5934375 734.296875 844.2734375 C732.41796875 846.015625 732.41796875 846.015625 729.734375 848.1484375 C728.72503906 848.95410156 727.71570312 849.75976562 726.67578125 850.58984375 C725.85231201 851.24170654 725.85231201 851.24170654 725.01220703 851.90673828 C723.2705643 853.29440068 721.54608151 854.70117158 719.82421875 856.11328125 C685.39631332 884.22854864 646.88138647 904.89960398 605.296875 920.2734375 C604.46317383 920.58442383 603.62947266 920.89541016 602.77050781 921.21582031 C601.64273926 921.63492676 601.64273926 921.63492676 600.4921875 922.0625 C599.86586426 922.29533691 599.23954102 922.52817383 598.59423828 922.76806641 C535.79959572 945.12322609 460.62598175 951.4068208 395.296875 938.2734375 C393.36303955 937.89590332 393.36303955 937.89590332 391.39013672 937.51074219 C365.07426906 932.24293033 339.41700145 924.08892981 315.296875 912.2734375 C314.2435498 911.76731934 314.2435498 911.76731934 313.16894531 911.25097656 C291.87153581 901.01663773 271.93613808 888.82249411 253.296875 874.2734375 C252.47316406 873.63148438 251.64945313 872.98953125 250.80078125 872.328125 C248.27840626 870.33443981 245.78293276 868.31222849 243.296875 866.2734375 C242.32363281 865.47550781 241.35039063 864.67757812 240.34765625 863.85546875 C227.39820695 853.12044593 214.56192114 841.65224556 203.421875 829.0234375 C202.84695313 828.37890625 202.27203125 827.734375 201.6796875 827.0703125 C200.296875 825.2734375 200.296875 825.2734375 199.296875 822.2734375 C198.636875 822.2734375 197.976875 822.2734375 197.296875 822.2734375 C195.58984375 820.4296875 195.58984375 820.4296875 193.484375 817.7734375 C192.67871094 816.76410156 191.87304688 815.75476562 191.04296875 814.71484375 C190.60194824 814.15941895 190.16092773 813.60399414 189.70654297 813.03173828 C188.2458479 811.2097906 186.76127052 809.40988088 185.26953125 807.61328125 C149.30506473 764.17990864 122.35909153 714.33779928 106.296875 660.2734375 C105.97267578 659.22188477 105.64847656 658.17033203 105.31445312 657.08691406 C102.40459583 647.38458642 100.46677722 637.60284758 98.671875 627.6484375 C98.51902039 626.81226898 98.36616577 625.97610046 98.2086792 625.11459351 C96.11498666 613.62758885 94.22882373 602.1852248 93.46351624 590.52084351 C93.28184443 588.07072787 93.03458966 585.63106755 92.78930664 583.18652344 C92.28206005 577.6310218 92.13568918 572.12686872 92.12890625 566.55078125 C92.12557785 565.56582169 92.12224945 564.58086212 92.11882019 563.5660553 C92.11379381 561.49464377 92.11141052 559.42322426 92.11157227 557.35180664 C92.10939733 554.24285952 92.09122674 551.13427472 92.07226562 548.02539062 C92.03985303 536.63494574 92.52656614 525.53578721 94.04031372 514.24594116 C94.4327952 511.22845095 94.73624066 508.20224681 95.05078125 505.17578125 C96.77534871 489.8921698 99.41696621 474.97647802 102.734375 459.9609375 C102.9213797 459.11046844 103.1083844 458.25999939 103.30105591 457.38375854 C106.48469409 443.00529146 110.27302481 428.83545813 114.56542969 414.74926758 C117.40497139 405.30105529 119.58706126 395.75007613 121.546875 386.0859375 C121.91607056 384.28914551 121.91607056 384.28914551 122.29272461 382.45605469 C125.65895138 365.31932277 126.6728429 348.52223285 126.609375 331.0859375 C126.60821686 330.09752869 126.60705872 329.10911987 126.60586548 328.09075928 C126.57227057 313.58743948 126.00825243 299.55466374 123.296875 285.2734375 C123.09191406 284.00371094 122.88695312 282.73398437 122.67578125 281.42578125 C113.96232541 231.68872588 87.6770019 182.60800044 53.44140625 145.7265625 C52.296875 144.2734375 52.296875 144.2734375 52.296875 142.2734375 C51.636875 142.2734375 50.976875 142.2734375 50.296875 142.2734375 C49.0625 141.015625 49.0625 141.015625 47.546875 139.1484375 C24.97870001 112.74881252 -4.51744473 95.06213195 -34.765625 78.7109375 C-35.79292725 78.15559326 -36.82022949 77.60024902 -37.87866211 77.02807617 C-42.3921118 74.59154196 -46.90953869 72.16381353 -51.44140625 69.76171875 C-63.20926207 63.44739116 -74.41303086 56.190554 -78.80078125 42.96484375 C-82.21555314 28.99532237 -78.7750399 14.82154983 -71.640625 2.5859375 C-68.12951364 -2.88984004 -64.73194032 -7.03809376 -59.140625 -10.4765625 C-58.19058594 -11.06953125 -57.24054687 -11.6625 -56.26171875 -12.2734375 C-38.93665833 -22.1130138 -15.38972673 -7.65056632 0 0 Z " fill="#FEFEFE" transform="translate(657.703125,617.7265625)"/>
<path d="M0 0 C1.97377807 3.7658942 3.09046753 7.59518981 4.17285156 11.68994141 C4.38213445 12.46771848 4.59141733 13.24549555 4.80704212 14.04684162 C5.50566946 16.64733497 6.19812437 19.24943152 6.890625 21.8515625 C7.38727021 23.70506282 7.88430364 25.55845916 8.38169861 27.41175842 C9.72795705 32.43211154 11.06894574 37.45385897 12.4090538 42.47585678 C13.82201592 47.76706337 15.23994562 53.05693821 16.6574707 58.34692383 C18.98506014 67.03518974 21.31007975 75.72413925 23.63330078 84.41357422 C26.67492739 95.78915199 29.72406516 107.16270098 32.77734375 118.53515625 C33.00409161 119.37977165 33.23083946 120.22438705 33.46445847 121.09459686 C34.36864222 124.46259448 35.27284412 127.83058723 36.17711067 131.19856262 C38.65489416 140.42750167 41.13020656 149.65710322 43.60546875 158.88671875 C44.50307873 162.23356488 45.40070526 165.58040656 46.29833984 168.92724609 C46.52061815 169.75601509 46.74289646 170.58478409 46.97191048 171.4386673 C49.47686529 180.77825666 51.98252976 190.11765561 54.48828125 199.45703125 C54.71550558 200.30393713 54.94272991 201.15084301 55.17683983 202.0234127 C56.32521081 206.30358483 57.47359241 210.58375411 58.62197876 214.86392212 C60.68560896 222.55532939 62.7491452 230.24676187 64.81268883 237.93819237 C65.9584554 242.20879594 67.104228 246.47939789 68.25 250.75 C68.70833336 252.45833333 69.1666667 254.16666666 69.625 255.875 C69.851875 256.720625 70.07875 257.56625 70.3125 258.4375 C116.37500046 430.1250017 116.37500046 430.1250017 117.06249714 432.68748951 C117.52083989 434.39585784 117.97918276 436.10422614 118.43752575 437.81259441 C119.58321589 442.08289201 120.72890402 446.35319014 121.87458801 450.62348938 C123.93879574 458.31738734 126.00301768 466.01128148 128.0673151 473.70515537 C129.21545964 477.98442382 130.36359233 482.26369544 131.51171875 486.54296875 C131.85257791 487.81341065 131.85257791 487.81341065 132.2003231 489.10951805 C135.3744956 500.94030872 138.54801307 512.77127493 141.72109604 524.60235786 C143.75141055 532.17244641 145.78191255 539.74248466 147.8125 547.3125 C148.03739609 548.15091808 148.26229218 548.98933617 148.4940033 549.85316086 C153.99954047 570.37756554 159.5093981 590.90080257 165.02734375 611.421875 C165.28148733 612.36702909 165.53563091 613.31218319 165.79747581 614.28597832 C167.87474588 622.01117062 169.95216054 629.73632404 172.02958298 637.46147537 C181.46348643 672.54314138 190.87689596 707.63027674 200.27864075 742.72057438 C200.79724977 744.65602742 201.31595629 746.59145434 201.83476257 748.52685452 C203.09260737 753.21974331 204.34877841 757.91306637 205.60119629 762.60740662 C207.81046115 770.88127729 210.03291539 779.15048302 212.32147789 787.40282822 C213.33692852 791.06742763 214.34321209 794.7345192 215.34903336 798.40177155 C215.81711633 800.0980639 216.28966171 801.79313356 216.76745224 803.48671722 C227.30033839 840.83283156 226.64671126 878.07077287 208.03417969 912.80224609 C203.73750715 920.43815716 198.68934364 927.35519407 193 934 C192.32453125 934.80953125 191.6490625 935.6190625 190.953125 936.453125 C173.93956513 956.19878938 152.1375088 968.28413011 127.40234375 975.55859375 C126.24529938 975.89987808 125.088255 976.24116241 123.89614868 976.5927887 C107.82839722 981.27813126 91.63208265 985.49730942 75.44818115 989.75952148 C68.65228288 991.55009617 61.85817786 993.34746974 55.06409454 995.14491653 C53.39833334 995.58546991 51.73249635 996.02573681 50.06658173 996.46570969 C41.11077899 998.83119867 32.16143979 1001.2175018 23.22753906 1003.66455078 C22.45183374 1003.87696568 21.67612843 1004.08938059 20.87691689 1004.30823231 C17.20996506 1005.31346907 13.54418084 1006.32275242 9.87985229 1007.33750916 C8.59064216 1007.69255338 7.30142736 1008.04758066 6.01220703 1008.40258789 C4.89395538 1008.71241104 3.77570374 1009.02223419 2.62356567 1009.34144592 C0 1010 0 1010 -2 1010 C-1.92942123 1009.40264523 -1.85884247 1008.80529047 -1.78612495 1008.18983404 C-0.86650092 999.47238256 -0.85518331 990.79706287 -0.8613348 982.04472065 C-0.85888414 980.32817697 -0.85599932 978.61163386 -0.85272202 976.89509156 C-0.84497541 972.18032588 -0.84338126 967.46557522 -0.8427946 962.75080395 C-0.84106211 957.62079497 -0.83357482 952.49079385 -0.82681805 947.36078948 C-0.81576943 938.37076156 -0.80839255 929.38073645 -0.80341911 920.3907032 C-0.79600717 907.02285698 -0.78292264 893.65502052 -0.76867336 880.28718006 C-0.74486444 857.80020339 -0.72565237 835.31322531 -0.70907402 812.82624245 C-0.69264412 790.55966771 -0.6741641 768.2930962 -0.65294075 746.0265255 C-0.65228236 745.33478994 -0.65162396 744.64305439 -0.65094561 743.93035715 C-0.64493102 737.61233788 -0.6388912 731.29431862 -0.63282111 724.9762994 C-0.61773243 709.27102027 -0.60296017 693.56574086 -0.58840275 677.86046124 C-0.58773961 677.14530929 -0.58707647 676.43015734 -0.58639324 675.69333412 C-0.55416987 640.91266429 -0.52559227 606.13199159 -0.49731445 571.35131836 C-0.48750046 559.28295896 -0.47767034 547.21459957 -0.46777344 535.14624023 C-0.46715964 534.39775054 -0.46654584 533.64926085 -0.46591344 532.87808965 C-0.43735274 498.07697263 -0.40620066 463.27585807 -0.37438093 428.4747439 C-0.37231499 426.21518563 -0.37025017 423.95562737 -0.36818558 421.6960691 C-0.35450152 406.72174836 -0.34077283 391.74742766 -0.32701423 376.77310698 C-0.29963889 346.97840607 -0.27252585 317.18370492 -0.24559305 287.38900361 C-0.24431047 285.97013031 -0.2430277 284.55125702 -0.24174474 283.13238372 C-0.16427537 197.45347881 -0.09231155 111.77456926 0 0 Z " fill="#EC1F23" transform="translate(1824,780)"/>
<path d="M0 0 C-0.07057877 0.59771714 -0.14115753 1.19543428 -0.21387505 1.81126406 C-1.13208286 10.51811709 -1.14482175 19.18237762 -1.1386652 27.92404461 C-1.14111587 29.63717743 -1.1440007 31.35030968 -1.14727798 33.06344113 C-1.15502443 37.76873645 -1.15661873 42.47401672 -1.1572054 47.17931764 C-1.15893792 52.29906058 -1.16642523 57.41879565 -1.17318195 62.53853399 C-1.18423048 71.51053714 -1.19160742 80.48253748 -1.19658089 89.45454597 C-1.20399288 102.7955897 -1.21707742 116.13662364 -1.23132664 129.47766159 C-1.25513547 151.9195603 -1.27434757 174.36146077 -1.29092598 196.80336571 C-1.30735592 219.02528306 -1.32583596 241.24719717 -1.34705925 263.46911049 C-1.34771764 264.15946043 -1.34837604 264.84981037 -1.34905439 265.56108 C-1.35506898 271.8664443 -1.3611088 278.17180856 -1.36717889 284.4771728 C-1.38226756 300.15098955 -1.39703982 315.82480659 -1.41159725 331.49862385 C-1.41226039 332.21234289 -1.41292353 332.92606192 -1.41360676 333.66140881 C-1.44583008 368.3723336 -1.47440771 403.08326126 -1.50268555 437.79418945 C-1.51249954 449.83833824 -1.52232967 461.88248702 -1.53222656 473.92663574 C-1.53284036 474.67362394 -1.53345416 475.42061214 -1.53408656 476.19023635 C-1.5626473 510.92158516 -1.59379936 545.65293151 -1.62561907 580.38427747 C-1.62768501 582.63930771 -1.62974983 584.89433796 -1.63181442 587.1493682 C-1.64549848 602.09368215 -1.65922717 617.03799605 -1.67298577 631.98230992 C-1.70036111 661.71730201 -1.72747414 691.45229434 -1.75440695 721.18728684 C-1.75568953 722.60331648 -1.7569723 724.01934613 -1.75825526 725.43537578 C-1.83655434 811.85836801 -1.90923673 898.28136501 -2 1008 C-3.64152426 1004.82231837 -4.70302273 1001.81689103 -5.63452148 998.35571289 C-5.94875061 997.19631195 -6.26297974 996.03691101 -6.58673096 994.84237671 C-6.93161023 993.5524944 -7.27639431 992.26258663 -7.62109375 990.97265625 C-7.99149258 989.59899641 -8.36225107 988.2254335 -8.7333374 986.85195923 C-9.75629315 983.06108428 -10.77367706 979.26873291 -11.79009628 975.47610092 C-12.66485819 972.21488062 -13.54286933 968.95453873 -14.42088032 965.69419193 C-23.2092114 933.05860755 -31.92255527 900.40277999 -40.64306641 867.74902344 C-48.33998662 838.92977177 -56.06375285 810.11785896 -63.8125 781.3125 C-64.33317175 779.37685172 -64.85384233 777.44120312 -65.37451172 775.5055542 C-66.4077651 771.66437495 -67.44103073 767.82319899 -68.4743042 763.98202515 C-68.85456882 762.56839251 -68.85456882 762.56839251 -69.24251556 761.12620163 C-69.75170465 759.23331765 -70.26090565 757.34043688 -70.77011871 755.44755936 C-76.25147311 735.07159149 -81.72106521 714.69247483 -87.1875 694.3125 C-87.64091893 692.62212089 -88.09433893 690.93174206 -88.54776001 689.24136353 C-90.34924437 682.52525919 -92.15065275 675.80913448 -93.95191956 669.0929718 C-97.1301198 657.24281327 -100.30896764 645.39282862 -103.48828125 633.54296875 C-103.71550558 632.69606287 -103.94272991 631.84915699 -104.17683983 630.9765873 C-105.32521081 626.69641517 -106.47359241 622.41624589 -107.62197876 618.13607788 C-109.68560896 610.44467061 -111.7491452 602.75323813 -113.81268883 595.06180763 C-114.9584554 590.79120406 -116.104228 586.52060211 -117.25 582.25 C-117.70833336 580.54166667 -118.1666667 578.83333334 -118.625 577.125 C-118.851875 576.279375 -119.07875 575.43375 -119.3125 574.5625 C-134.66666667 517.33333333 -150.02083333 460.10416667 -165.375 402.875 C-165.6018772 402.02936682 -165.82875441 401.18373363 -166.06250668 400.3124752 C-166.52081781 398.60422454 -166.9791289 396.89597386 -167.43743992 395.18772316 C-168.58361235 390.91562489 -169.7297858 386.64352689 -170.8759613 382.37142944 C-172.93441309 374.69903457 -174.99285805 367.02663785 -177.05126476 359.35423088 C-178.19172356 355.10334007 -179.33218833 350.85245086 -180.47265625 346.6015625 C-180.6986809 345.75909595 -180.92470554 344.91662941 -181.15757942 344.04863358 C-183.72580737 334.4760599 -186.29417055 324.90352252 -188.86279297 315.33105469 C-189.10056898 314.44492807 -189.33834499 313.55880146 -189.58332634 312.64582253 C-190.78273781 308.17596555 -191.98219617 303.70612116 -193.18173218 299.23629761 C-195.52175666 290.516411 -197.86093857 281.79629993 -200.19824219 273.07568359 C-201.09432404 269.73272675 -201.99049151 266.38979287 -202.88671875 263.046875 C-203.10454639 262.23433384 -203.32237404 261.42179268 -203.54680252 260.58462906 C-206.38232024 250.00926124 -209.23066129 239.43745448 -212.09222603 228.86910629 C-213.32195447 224.32478433 -214.54779233 219.77941081 -215.77420044 215.23419189 C-216.41375467 212.86867131 -217.05534416 210.50369984 -217.69918823 208.13934326 C-218.57021517 204.94061263 -219.43428181 201.74007594 -220.296875 198.5390625 C-220.54472244 197.63673889 -220.79256989 196.73441528 -221.04792786 195.80474854 C-224.19848016 184.04156494 -225.41227213 172.66529765 -225.375 160.5 C-225.37412384 159.79823639 -225.37324768 159.09647278 -225.37234497 158.3734436 C-225.22851593 123.3184751 -211.91711146 93.38760294 -188 68 C-187.40058594 67.33613281 -186.80117187 66.67226563 -186.18359375 65.98828125 C-164.28295064 42.66858999 -133.70984087 34.392931 -103.78935242 26.653759 C-100.31903325 25.75398195 -96.85143112 24.84386828 -93.38378906 23.93383789 C-92.67859509 23.74877465 -91.97340111 23.56371141 -91.24683762 23.3730402 C-89.80729896 22.99522033 -88.36777343 22.61735041 -86.9282608 22.23943138 C-84.74071037 21.66553163 -82.55284105 21.09286016 -80.3649292 20.52033997 C-69.87418588 17.7722988 -59.40198406 14.95956109 -48.9375 12.11328125 C-47.47064668 11.71472512 -46.00378881 11.31618575 -44.53692627 10.91766357 C-38.88160743 9.380496 -33.22658368 7.84229199 -27.57409668 6.29473877 C-24.92274672 5.56887573 -22.27075332 4.8454684 -19.61791992 4.12504578 C-17.21885426 3.47339059 -14.8208353 2.81786498 -12.42407227 2.15779114 C-11.36728271 1.87167465 -10.31049316 1.58555817 -9.22167969 1.29077148 C-8.30441101 1.04004379 -7.38714233 0.7893161 -6.44207764 0.5309906 C-4 0 -4 0 0 0 Z " fill="#EC1F23" transform="translate(311,344)"/>
<path d="M0 0 C11.6349452 10.33683148 21.24940839 22.08378376 28.65380859 35.81176758 C28.98622559 36.41746582 29.31864258 37.02316406 29.66113281 37.6472168 C36.14824566 50.23228004 39.79890738 64.36795387 43.42333984 77.99145508 C43.84108894 79.54254933 44.25937206 81.09349985 44.67814636 82.64431763 C45.55010046 85.87859812 46.41782575 89.11396935 47.28198242 92.3503418 C48.3580392 96.38021903 49.44126337 100.40811848 50.52747059 104.43527031 C51.59958255 108.41161886 52.66780178 112.38901073 53.73583984 116.36645508 C53.92422739 117.06683773 54.11261494 117.76722038 54.3067112 118.48882675 C58.94250876 135.74694378 63.32821532 153.06640487 67.77880859 170.37426758 C-237.47119141 170.37426758 -542.72119141 170.37426758 -857.22119141 170.37426758 C-853.93513229 168.1835615 -850.85618893 167.31846042 -847.09472656 166.34082031 C-845.99822454 166.04863145 -845.99822454 166.04863145 -844.87957096 165.75053978 C-842.42449632 165.09771242 -839.96739266 164.45287238 -837.51025391 163.80786133 C-835.75375168 163.34229674 -833.99739208 162.87619373 -832.24116516 162.40959167 C-828.44747067 161.40270267 -824.65290461 160.39919167 -820.8576355 159.39825439 C-814.76706211 157.79177156 -808.67859188 156.1774244 -802.59057617 154.5612793 C-801.55904954 154.28746178 -800.52752291 154.01364426 -799.46473789 153.73152924 C-797.35854685 153.17242673 -795.25236257 152.61329876 -793.14618492 152.05414581 C-789.92285299 151.19865322 -786.69933663 150.3438585 -783.4757843 149.48919678 C-762.64408193 143.96457461 -741.8304614 138.37349085 -721.01995468 132.76964569 C-713.28528688 130.68713241 -705.55011208 128.60650234 -697.81498909 126.52568054 C-695.86200341 126.00030543 -693.90902464 125.47490464 -691.95605278 124.94947815 C-668.65264984 118.68012909 -645.34342618 112.43252588 -622.03369141 106.18676758 C-619.9869579 105.63832946 -617.94022531 105.0898879 -615.89349365 104.54144287 C-614.37818589 104.13539951 -614.37818589 104.13539951 -612.83226585 103.72115326 C-611.82478609 103.45118782 -610.81730633 103.18122238 -609.77929688 102.90307617 C-607.75458787 102.36053443 -605.72987881 101.81799293 -603.70516968 101.27545166 C-602.70832531 101.00833626 -601.71148094 100.74122086 -600.68442917 100.46601105 C-598.6805476 99.92905267 -596.67666424 99.39210095 -594.67277908 98.85515594 C-573.87528909 93.28239429 -553.0792421 87.70426107 -532.28369141 82.12426758 C-530.60120661 81.6728205 -528.91872166 81.22137397 -527.23623657 80.76992798 C-520.56127119 78.97888522 -513.88631601 77.18780445 -507.21138 75.39665222 C-495.40092773 72.22743658 -483.59038736 69.05854944 -471.77978516 65.88989258 C-470.9324135 65.6625518 -470.08504185 65.43521103 -469.21199226 65.20098114 C-464.92842854 64.0517484 -460.64486339 62.90252096 -456.36129761 61.7532959 C-448.66843943 59.68939926 -440.97559384 57.6254557 -433.28274727 55.56151581 C-429.01222916 54.41576449 -424.74171024 53.27001619 -420.47119141 52.12426758 C-418.76285807 51.66593426 -417.05452474 51.20760093 -415.34619141 50.74926758 C-405.09619151 47.99926761 -405.09619151 47.99926761 -402.5337019 47.31177044 C-400.82533356 46.85342768 -399.11696526 46.39508481 -397.40859699 45.93674183 C-393.1382994 44.79105169 -388.86800127 43.64536356 -384.59770203 42.49967957 C-376.90380407 40.43547184 -369.20990993 38.3712499 -361.51603603 36.30695248 C-357.23676759 35.15880794 -352.95749596 34.01067525 -348.67822266 32.86254883 C-347.83126139 32.63530939 -346.98430012 32.40806995 -346.11167336 32.17394447 C-335.1176447 29.2242732 -324.12348163 26.27510357 -313.12918091 23.32644653 C-305.56399906 21.29747439 -297.99887759 19.26827714 -290.4337616 17.23905945 C-287.91642105 16.56384088 -285.39906843 15.88866731 -282.88171387 15.21350098 C-263.53838076 10.02539316 -244.1966638 4.83132739 -224.85759926 -0.37267113 C-221.72647816 -1.2152047 -218.59532308 -2.05761187 -215.4641571 -2.89997864 C-213.38552806 -3.45919611 -211.30689951 -4.01841546 -209.22827148 -4.57763672 C-208.20343375 -4.85335038 -207.17859602 -5.12906404 -206.1227026 -5.41313267 C-201.12837591 -6.75686233 -196.13416621 -8.10102374 -191.14022827 -9.44619751 C-179.38079617 -12.61362305 -167.61949585 -15.7739423 -155.85460281 -18.92102814 C-153.17898421 -19.63702712 -150.50365819 -20.3541126 -147.82833862 -21.07122803 C-143.45524022 -22.24266623 -139.08064145 -23.40834625 -134.70491791 -24.56993866 C-133.08770543 -24.99998778 -131.47092089 -25.43165022 -129.85462189 -25.86511993 C-83.43051472 -38.30683669 -37.02757935 -32.10619222 0 0 Z " fill="#ED1F24" transform="translate(1608.22119140625,55.625732421875)"/>
<path d="M0 0 C304.26 0 608.52 0 922 0 C918.8536095 2.09759367 916.52282166 2.80203432 912.88330078 3.75805664 C912.25955755 3.923597 911.63581432 4.08913736 910.99316978 4.2596941 C908.89523532 4.81511238 906.79529238 5.36252672 904.6953125 5.91015625 C903.18593352 6.30830888 901.67670052 6.70701531 900.16760254 7.10623169 C896.89225518 7.97169307 893.61605503 8.83382112 890.33917236 9.69345093 C882.26088088 11.81308836 874.1874375 13.95108838 866.11341476 16.08691597 C863.24757229 16.84484423 860.38155952 17.60212607 857.51553345 18.35935974 C837.49938431 23.65024941 817.50610475 29.025485 797.51479721 34.4093399 C789.68599474 36.51746765 781.85669414 38.6237455 774.02747154 40.73031235 C772.04172645 41.26461651 770.05598961 41.79895137 768.070261 42.3333168 C745.67894054 48.35875778 723.2820108 54.36322551 700.88419342 60.36446381 C695.76830888 61.735225 690.65246752 63.10614734 685.53662109 64.47705078 C683.50799584 65.02066129 681.47937036 65.56427091 679.45074463 66.10787964 C678.45219704 66.37545956 677.45364944 66.64303947 676.42484283 66.91872787 C673.42123303 67.72359429 670.41761751 68.52843935 667.41400146 69.33328247 C647.85854395 74.57340865 628.30393241 79.81668571 608.75 85.0625 C607.92368828 85.28417217 607.09737656 85.50584435 606.24602509 85.73423386 C577.3335515 93.49061501 548.42503496 101.26167942 519.51719284 109.03530121 C482.17839572 119.07596239 444.83275208 129.09096072 407.4850769 139.09854126 C406.48803616 139.36570576 405.49099541 139.63287025 404.4637413 139.90813065 C402.45964556 140.44514039 400.45554858 140.98214551 398.45145035 141.51914597 C378.493681 146.86690331 358.53722511 152.21954914 338.58129501 157.57416534 C335.2459564 158.46909225 331.91059813 159.36394584 328.57524014 160.25880051 C313.1355979 164.40118272 297.69615856 168.54431906 282.25732708 172.68972206 C274.85121586 174.67829741 267.44500696 176.6665087 260.0387392 178.65450096 C255.66254725 179.82919062 251.28641203 181.0040906 246.91043091 182.17956543 C245.26328698 182.62199513 243.61614142 183.06441871 241.96899414 183.50683594 C240.76381339 183.830559 240.76381339 183.830559 239.53428555 184.16082191 C235.59548675 185.21849472 231.65630729 186.27471254 227.71629333 187.32785034 C226.95515449 187.53129877 226.19401564 187.7347472 225.40981197 187.94436073 C223.88702365 188.35136861 222.36422014 188.75831967 220.8414011 189.16521263 C216.1979849 190.40736773 211.55808099 191.6618482 206.9203186 192.92494297 C203.84555602 193.76104316 200.76904059 194.59056629 197.69219971 195.41898155 C196.26361927 195.8052478 194.83579965 196.19434246 193.40887451 196.58667946 C156.86535434 206.62851155 120.38446177 203.17966058 87.2421875 184.53515625 C68.90428148 173.79531294 53.62101419 158.34017664 42.3125 140.4375 C41.68976196 139.47734985 41.68976196 139.47734985 41.05444336 138.49780273 C31.94785714 123.50341394 27.28961956 106.05010618 22.890625 89.23046875 C22.3522193 87.20961586 21.81270506 85.18905803 21.27215576 83.16877747 C19.86874072 77.91196898 18.48007336 72.65138106 17.0947876 67.38977051 C15.68810661 62.05757453 14.26728044 56.72915228 12.84765625 51.40039062 C10.53433039 42.71024497 8.22729558 34.01847029 5.93729019 25.32214642 C4.89431773 21.36471551 3.84314865 17.41007747 2.76501465 13.46206665 C2.5758485 12.76595181 2.38668236 12.06983698 2.19178391 11.35262775 C1.690394 9.51170091 1.18482003 7.67191502 0.67889404 5.83222961 C0 3 0 3 0 0 Z " fill="#ED1F24" transform="translate(458,1908)"/>
<path d="M0 0 C38.58861007 -1.68546595 75.25586843 9.57258444 105.81665039 33.16918945 C107.26491211 34.28100586 107.26491211 34.28100586 108.74243164 35.4152832 C136.22381885 57.22158904 156.35435317 88.70906709 163.41088867 123.20483398 C163.68019606 124.50859285 163.96493105 125.80926495 164.26538086 127.10620117 C166.70491769 137.67577678 167.10536914 148.16684594 167.12915039 158.98168945 C167.13736816 160.92990601 167.13736816 160.92990601 167.14575195 162.91748047 C166.82955394 205.72142381 147.91469014 244.9421494 117.8203125 274.70239258 C88.19053978 303.06954175 49.44730361 317.62846936 8.69165039 317.60668945 C7.96701599 317.60709229 7.24238159 317.60749512 6.49578857 317.60791016 C-7.44580626 317.56196496 -21.27168936 316.52102279 -34.68334961 312.48168945 C-36.00906982 312.09086182 -36.00906982 312.09086182 -37.36157227 311.69213867 C-45.62475063 309.17544218 -53.43923743 305.97892273 -61.18334961 302.16918945 C-61.8143457 301.86255371 -62.4453418 301.55591797 -63.09545898 301.23999023 C-76.00298923 294.89477468 -87.50314634 287.00805212 -98.01928711 277.17700195 C-99.87460039 275.45564631 -101.77055835 273.87261854 -103.74584961 272.29418945 C-108.56033326 268.19003945 -112.30634671 263.13619149 -116.18334961 258.16918945 C-116.92842773 257.23977539 -117.67350586 256.31036133 -118.44116211 255.3527832 C-145.22061563 221.06201955 -153.97360857 177.92118398 -149.55834961 135.16918945 C-144.78705382 101.96892289 -128.69441573 71.46623415 -105.50854492 47.5456543 C-104.38866505 46.3824482 -103.29464692 45.19442663 -102.20678711 44.0012207 C-82.87670971 23.35124815 -55.30450992 10.37600842 -28.24584961 3.73168945 C-27.24021973 3.48443115 -26.23458984 3.23717285 -25.19848633 2.98242188 C-16.82075152 1.05854913 -8.56347244 0.45513355 0 0 Z " fill="#FEFEFE" transform="translate(1193.183349609375,1105.830810546875)"/>
<path d="M0 0 C2.13703888 -0.00967095 4.27309877 -0.0407804 6.40991211 -0.07226562 C19.16109312 -0.17158705 31.24184057 1.71942079 43.22045898 6.30273438 C44.00638428 6.60018555 44.79230957 6.89763672 45.60205078 7.20410156 C59.8758584 12.78944291 72.84774537 19.94769758 84.47729492 29.95703125 C85.8549748 31.14098898 87.25931509 32.29373415 88.66577148 33.44335938 C111.19241551 52.50979789 126.70114964 83.29846314 129.68530273 112.56054688 C132.35675318 151.12907587 123.70232186 185.49080661 98.38452148 215.28320312 C75.49217622 241.49207794 43.39078907 256.18925201 8.97045898 259.24023438 C-3.71635546 260.07457501 -15.64167551 258.96200359 -28.02954102 256.24023438 C-29.03758789 256.046875 -30.04563477 255.85351562 -31.08422852 255.65429688 C-51.1975276 251.36420261 -69.6793296 240.63137196 -85.02954102 227.24023438 C-85.7346582 226.66789063 -86.43977539 226.09554687 -87.16625977 225.50585938 C-101.46577842 213.70664948 -111.50805686 196.97624543 -119.02954102 180.24023438 C-119.31458496 179.61310547 -119.59962891 178.98597656 -119.89331055 178.33984375 C-133.0213366 148.75337794 -132.5249189 113.46112689 -121.34204102 83.42773438 C-108.02180075 49.60834541 -83.13377118 24.12795513 -50.01000977 9.30273438 C-43.81954898 6.65895322 -37.57742842 4.80492435 -31.02954102 3.24023438 C-29.95446289 2.89992188 -28.87938477 2.55960937 -27.77172852 2.20898438 C-18.69773556 -0.14002424 -9.3187606 0.0253658 0 0 Z " fill="#FEFEFE" transform="translate(939.029541015625,464.759765625)"/>
<path d="M0 0 C-3.78705792 4.52052654 -7.6931363 8.83855772 -11.87081528 12.99944973 C-12.43261409 13.56300158 -12.99441291 14.12655343 -13.57323593 14.70718262 C-15.44586931 16.58444731 -17.32201339 18.45816204 -19.19818115 20.33189392 C-20.55920311 21.69478526 -21.92000902 23.05789238 -23.28061795 24.42119604 C-27.01206688 28.15875295 -30.74662538 31.89318908 -34.48171926 35.62710297 C-38.51209881 39.65727828 -42.53961394 43.69031443 -46.56752014 47.72296143 C-54.45396145 55.61770275 -62.34317367 63.50966944 -70.23348704 71.4005407 C-76.64279304 77.81032187 -83.05130862 84.22089221 -89.45926666 90.63202095 C-104.66398737 105.84411227 -119.86931554 121.05559492 -135.07798386 136.26373959 C-135.56399835 136.7497385 -136.05001284 137.23573742 -136.55075505 137.73646357 C-139.01405298 140.19967839 -141.47735887 142.66288525 -143.94066653 145.12609034 C-144.42988724 145.61529111 -144.91910796 146.10449188 -145.42315355 146.60851692 C-146.41247344 147.59779638 -147.40179402 148.58707516 -148.39111528 149.57635326 C-163.8027301 164.98735455 -179.21027121 180.40241856 -194.61474609 195.82055664 C-211.92066687 213.1418208 -229.22994943 230.4597147 -246.54400277 247.7728501 C-255.71252468 256.94103933 -264.87948487 266.11077788 -274.04247284 275.28449821 C-281.83784298 283.08894038 -289.63662247 290.88995517 -297.43993774 298.68645369 C-301.42444022 302.6676751 -305.4072768 306.65052777 -309.38582802 310.63769722 C-313.0218241 314.28148892 -316.66233175 317.92070654 -320.30661967 321.55620474 C-321.62988808 322.87792279 -322.95143936 324.20136247 -324.27116892 325.52661406 C-326.05375751 327.31617137 -327.8422827 329.0995671 -329.63254929 330.88143826 C-330.15340982 331.40726697 -330.67427036 331.93309569 -331.21091455 332.47485861 C-334.77170358 336 -334.77170358 336 -337 336 C-338.26719646 325.25580722 -338.18613371 314.48820299 -338.18530273 303.68554688 C-338.18747585 300.53501594 -338.20564548 297.38484368 -338.22460938 294.234375 C-338.27229808 277.3562991 -337.13402616 260.81174785 -334.125 244.1875 C-333.97675781 243.30642578 -333.82851563 242.42535156 -333.67578125 241.51757812 C-329.2342428 216.3308052 -320.393554 190.87699796 -309 168 C-308.54898926 167.08702148 -308.09797852 166.17404297 -307.63330078 165.23339844 C-292.59180899 135.00779319 -273.57404983 108.12830854 -249.59887695 84.33813477 C-247.9000208 82.65026313 -246.21245737 80.9516009 -244.52539062 79.25195312 C-243.44335107 78.1712311 -242.36069348 77.09112741 -241.27734375 76.01171875 C-240.77532944 75.50565598 -240.27331512 74.9995932 -239.75608826 74.47819519 C-236.23007442 71 -236.23007442 71 -234 71 C-234 70.34 -234 69.68 -234 69 C-232.05969022 67.28416346 -230.11511079 65.69776186 -228.0625 64.125 C-227.43786865 63.6417627 -226.8132373 63.15852539 -226.16967773 62.66064453 C-213.96803995 53.30390148 -201.43919213 44.49089405 -188 37 C-187.16758789 36.5359375 -186.33517578 36.071875 -185.47753906 35.59375 C-127.51271817 3.62464232 -64.91908609 -0.62976503 0 0 Z " fill="#3E120B" transform="translate(1167,879)"/>
</svg>
